<svg enable-background="new 0 0 24 24" height="512" viewBox="0 0 24 24" width="512" xmlns="http://www.w3.org/2000/svg"><path d="m21.25 0h-18.5c-1.517 0-2.75 1.233-2.75 2.75v18.5c0 1.517 1.233 2.75 2.75 2.75h18.5c1.517 0 2.75-1.233 2.75-2.75v-18.5c0-1.517-1.233-2.75-2.75-2.75z" fill="#eceff1"/><path d="m15 16.25c0 .267-.142.514-.372.648-.117.068-.247.102-.378.102-.128 0-.255-.032-.37-.098l-7.5-4.25c-.234-.132-.38-.381-.38-.652s.146-.52.38-.652l7.5-4.25c.233-.132.517-.129.748.004.23.134.372.381.372.648z" fill="#00bcd4"/><path d="m21.25 24h-18.5c-1.517 0-2.75-1.233-2.75-2.75v-18.5c0-1.517 1.233-2.75 2.75-2.75h18.5c1.517 0 2.75 1.233 2.75 2.75v18.5c0 1.517-1.233 2.75-2.75 2.75zm-18.5-22.5c-.689 0-1.25.561-1.25 1.25v18.5c0 .689.561 1.25 1.25 1.25h18.5c.689 0 1.25-.561 1.25-1.25v-18.5c0-.689-.561-1.25-1.25-1.25z"/><path d="m14.25 17c-.128 0-.255-.032-.37-.098l-7.5-4.25c-.234-.132-.38-.382-.38-.652s.146-.52.38-.652l7.5-4.25c.233-.131.517-.129.748.004.23.134.372.381.372.648v8.5c0 .267-.142.514-.372.648-.117.068-.247.102-.378.102zm-5.979-5 5.229 2.963v-5.926z"/></svg>