<svg width="75" height="75" viewBox="0 0 75 75" fill="none" xmlns="http://www.w3.org/2000/svg">
<path d="M70.1924 13.4615H4.80776C2.15186 13.4615 0 11.3096 0 8.65386C0 5.9981 2.15186 3.8461 4.80776 3.8461H70.1924C72.8481 3.8461 75 5.99796 75 8.65386C75 11.3098 72.8481 13.4615 70.1924 13.4615Z" fill="#FF485A"/>
<path d="M43.2693 42.3078H4.80776C2.15186 42.3078 0 40.1558 0 37.5C0 34.8443 2.15186 32.6923 4.80776 32.6923H43.2693C45.925 32.6923 48.077 34.8441 48.077 37.5C48.077 40.1559 45.925 42.3078 43.2693 42.3078Z" fill="#FF485A"/>
<path d="M70.1924 42.3078H62.5C59.8443 42.3078 57.6923 40.1559 57.6923 37.5C57.6923 34.8441 59.8441 32.6922 62.5 32.6922H70.1924C72.8481 32.6922 75 34.8441 75 37.5C75 40.1559 72.8481 42.3078 70.1924 42.3078Z" fill="#FFBBC0"/>
<path d="M70.1924 71.1539H4.80776C2.15186 71.1539 0 69.0019 0 66.3462C0 63.6904 2.15186 61.5384 4.80776 61.5384H70.1924C72.8481 61.5384 75 63.6902 75 66.3462C75 69.0019 72.8481 71.1539 70.1924 71.1539Z" fill="#FF485A"/>
</svg>
