<?xml version="1.0" standalone="no"?>
<!DOCTYPE svg PUBLIC "-//W3C//DTD SVG 20010904//EN"
 "http://www.w3.org/TR/2001/REC-SVG-20010904/DTD/svg10.dtd">
<svg version="1.0" xmlns="http://www.w3.org/2000/svg"
 width="1280.000000pt" height="640.000000pt" viewBox="0 0 1280.000000 640.000000"
 preserveAspectRatio="xMidYMid meet">
<metadata>
Created by potrace 1.15, written by Peter Selinger 2001-2017
</metadata>
<g transform="translate(0.000000,640.000000) scale(0.100000,-0.100000)"
fill="#000000" stroke="none">
<path d="M157 5107 l-158 -872 25 -975 c14 -536 30 -1141 36 -1345 5 -203 14
-586 20 -850 6 -264 13 -517 16 -562 l6 -83 634 0 634 0 0 30 c0 25 4 30 25
30 21 0 25 -5 25 -30 l0 -30 480 -2 c264 -2 485 -2 490 0 6 2 10 17 10 33 0
28 2 29 44 29 41 0 45 -2 51 -30 l6 -30 450 0 449 0 0 30 c0 16 5 30 10 30 6
0 10 -13 10 -30 l0 -30 330 0 330 0 0 31 c0 27 3 30 28 27 21 -2 28 -9 30 -30
l3 -28 185 0 184 0 0 30 c0 25 4 30 25 30 21 0 25 -5 25 -30 l0 -30 330 0 330
0 0 30 c0 17 5 30 10 30 6 0 10 -13 10 -30 l0 -30 138 -1 c75 -1 141 -1 145 0
4 1 147 1 317 1 l310 0 0 30 c0 29 2 30 45 30 43 0 45 -1 45 -30 0 -27 8 -35
32 -31 4 0 219 1 478 1 l470 1 0 29 c0 25 4 30 25 30 21 0 25 -5 25 -30 l0
-30 1255 0 1255 0 0 30 c0 25 4 30 25 30 21 0 25 -5 25 -30 l0 -29 490 -1 490
0 0 30 c0 29 2 30 45 30 43 0 45 -1 45 -30 l0 -30 455 0 455 0 0 30 c0 16 5
30 10 30 6 0 10 -13 10 -30 l0 -30 330 0 330 0 0 30 c0 25 4 30 25 30 21 0 25
-5 25 -30 l0 -30 115 0 115 0 -5 43 c-4 39 -22 532 -45 1247 -5 168 -17 463
-26 655 -19 424 -18 462 46 1560 28 473 49 872 48 887 -2 15 -43 -196 -92
-469 -50 -273 -92 -491 -93 -486 -2 6 -31 192 -63 414 -69 465 -66 492 -29
-334 l22 -479 -28 -158 c-27 -151 -28 -168 -23 -401 3 -167 2 -235 -5 -219 -6
14 -27 62 -47 106 -36 78 -37 85 -34 170 3 49 16 395 30 769 13 374 34 905 44
1180 11 275 20 518 19 540 -1 22 -72 -313 -159 -745 l-158 -785 7 -219 c4
-155 3 -231 -6 -260 -6 -22 -17 -61 -23 -85 l-12 -45 -20 32 -20 32 21 352
c11 194 30 513 41 708 11 195 22 375 26 400 3 25 3 42 0 39 -3 -3 -55 -279
-116 -615 -129 -714 -120 -665 -129 -660 -4 3 -6 -7 -3 -22 2 -15 -13 -114
-32 -221 -24 -130 -36 -225 -36 -285 l0 -91 -46 80 c-26 44 -64 108 -85 143
-36 58 -39 69 -39 135 0 60 15 242 45 552 l5 50 -31 -64 c-16 -35 -31 -62 -33
-60 -1 2 2 122 7 266 l10 262 56 3 56 3 -73 29 c-39 16 -74 27 -77 25 -2 -3
-14 -69 -26 -147 -13 -78 -25 -140 -27 -138 -2 3 -24 137 -48 298 -33 224 -42
271 -39 198 37 -748 38 -819 20 -947 -10 -67 -21 -123 -25 -123 -5 0 -17 15
-29 33 -27 41 -26 29 1 -45 l21 -60 -18 -116 c-10 -65 -21 -128 -25 -142 -7
-25 -7 -25 -25 10 -17 33 -17 58 -5 535 l12 500 -157 860 c-86 473 -159 862
-162 865 -2 3 -2 -38 2 -90 3 -52 15 -363 26 -690 11 -327 26 -777 34 -1000
22 -591 21 -611 -20 -840 -27 -149 -35 -222 -35 -311 0 -117 0 -117 -50 -240
-27 -68 -50 -117 -50 -109 0 32 61 560 80 688 11 74 20 137 19 140 -3 26 -203
-766 -247 -978 l-31 -145 -3 285 c-1 157 -2 314 0 350 1 36 -10 145 -25 243
l-27 177 22 67 c12 37 20 68 18 70 -2 2 -14 -13 -27 -33 -12 -21 -24 -33 -25
-28 -2 5 -33 200 -70 434 -37 234 -68 427 -70 429 -4 5 -126 -39 -138 -51 -6
-4 12 -8 41 -8 l51 0 5 -42 c4 -24 9 -144 12 -268 l6 -225 -31 65 -31 65 5
-70 c3 -38 17 -186 31 -328 l24 -258 -48 -75 -48 -75 -38 85 c-21 48 -40 84
-42 82 -3 -2 5 -54 18 -114 23 -120 21 -185 -7 -148 -8 11 -14 43 -14 70 0 28
-9 98 -20 156 -15 78 -234 1275 -286 1568 -4 18 -8 32 -9 30 -2 -2 16 -325 39
-718 l43 -715 -41 -67 -41 -67 -3 62 c-1 34 1 175 5 312 l8 250 -152 765 c-84
421 -153 774 -153 784 0 11 -3 17 -6 13 -4 -3 1 -235 11 -514 l18 -508 -57
-389 c-31 -214 -57 -391 -59 -392 -2 -2 -52 265 -111 594 -59 328 -110 599
-113 602 -2 3 -2 -22 1 -55 4 -33 20 -296 36 -585 16 -289 34 -594 40 -679 14
-220 13 -230 -15 -136 -49 166 -190 533 -200 523 -2 -2 3 -59 10 -128 8 -69
26 -257 40 -419 26 -277 26 -296 11 -329 -9 -19 -19 -32 -22 -30 -4 5 -104
378 -119 446 -4 18 -9 31 -11 29 -3 -3 4 -67 15 -143 11 -77 27 -208 37 -291
16 -148 16 -154 -1 -194 l-19 -41 -20 39 c-17 32 -20 54 -18 148 3 100 -5 154
-83 595 -48 267 -92 515 -99 552 l-13 67 43 53 c24 28 41 54 39 56 -2 2 -32 1
-66 -3 l-62 -7 6 -162 c3 -88 12 -303 18 -477 l12 -315 -38 -60 c-52 -80 -165
-276 -165 -286 0 -21 -17 -3 -32 35 -16 39 -16 62 -3 337 8 162 23 500 34 750
12 250 23 475 26 499 3 25 3 42 0 39 -3 -3 -43 -270 -89 -594 -68 -478 -85
-622 -90 -764 -22 -604 -27 -694 -49 -770 -19 -68 -22 -109 -27 -435 -3 -198
-7 -317 -9 -265 -2 62 -6 86 -10 70 l-8 -25 -5 25 c-3 16 -6 4 -8 -30 -3 -55
-3 -54 -10 20 -8 103 2 468 80 2700 11 316 24 710 30 875 5 165 12 340 15 390
3 49 4 87 1 85 -2 -3 -48 -247 -102 -542 -54 -296 -99 -537 -100 -535 -1 1
-46 241 -98 532 -53 292 -98 535 -101 540 -2 6 -2 -33 0 -85 3 -52 7 -167 10
-255 9 -275 44 -1284 65 -1895 51 -1459 57 -1738 44 -1865 l-13 -120 4 100 c2
55 0 91 -4 80 l-8 -20 -5 20 c-3 11 -7 -20 -9 -70 -2 -49 -6 72 -9 270 -6 324
-9 367 -28 434 -18 65 -23 130 -38 505 l-17 431 -83 589 c-46 324 -86 591 -89
594 -3 3 -3 -19 0 -49 3 -29 19 -351 35 -714 16 -363 31 -696 34 -739 4 -66 1
-87 -16 -119 l-20 -39 -55 98 c-31 55 -78 135 -106 178 l-51 79 18 474 c10
261 17 476 15 478 -2 2 -33 7 -69 11 -55 6 -63 5 -54 -7 6 -8 26 -33 44 -56
28 -36 32 -48 27 -80 -3 -21 -46 -270 -97 -553 -81 -457 -91 -527 -89 -620 1
-81 -2 -115 -16 -149 l-18 -44 -20 39 c-20 39 -20 41 -3 199 10 88 27 220 37
294 11 73 18 135 16 137 -2 3 -30 -95 -61 -216 -74 -286 -69 -274 -91 -228
-17 35 -17 46 9 335 16 164 34 352 41 418 7 66 12 121 10 123 -10 11 -149
-350 -200 -523 -13 -44 -24 -69 -24 -56 -1 32 66 1189 79 1365 5 77 8 141 6
143 -2 2 -11 -40 -21 -94 -145 -805 -203 -1104 -208 -1078 -3 17 -30 199 -59
406 l-52 376 17 474 c10 261 17 488 17 504 -1 17 -71 -316 -156 -740 -175
-865 -161 -755 -148 -1215 l6 -215 -45 65 -44 65 38 650 c20 358 40 686 43
730 2 44 3 76 1 70 -13 -29 -315 -1725 -315 -1765 0 -25 -6 -55 -14 -66 -14
-18 -15 -18 -21 9 -4 16 2 74 14 139 12 61 20 113 18 115 -3 2 -21 -35 -42
-82 l-39 -86 -47 75 -48 75 24 268 c14 147 27 295 30 328 l5 60 -21 -45 c-11
-25 -25 -56 -30 -69 -5 -13 -11 -22 -12 -20 -4 6 13 471 19 507 5 31 6 32 56
32 29 0 48 4 43 8 -13 12 -135 56 -139 51 -2 -2 -33 -195 -70 -429 -37 -234
-69 -429 -70 -434 -1 -5 -13 7 -25 28 -13 20 -25 35 -27 33 -2 -2 6 -33 18
-70 l22 -66 -24 -143 c-22 -129 -25 -181 -30 -533 -3 -214 -7 -378 -8 -363 -6
70 -88 414 -245 1021 -11 43 -21 76 -24 74 -2 -2 4 -48 12 -101 14 -85 85
-692 85 -720 0 -6 -21 39 -47 99 l-47 110 -6 155 c-5 109 -18 211 -42 345
l-35 190 13 365 c17 484 53 1513 59 1720 3 91 8 194 11 230 3 35 3 62 -1 59
-3 -3 -75 -388 -161 -855 l-156 -849 12 -508 c12 -498 11 -508 -8 -538 l-20
-31 -10 63 c-36 211 -36 207 -17 267 10 31 20 64 22 72 3 8 -5 0 -17 -17 -12
-18 -25 -33 -29 -33 -4 0 -16 54 -26 120 -18 116 -18 134 -1 503 9 210 19 416
21 457 3 41 3 71 0 65 -2 -5 -23 -138 -45 -294 -22 -156 -41 -286 -43 -287 -2
-2 -14 64 -26 146 -13 83 -27 150 -32 150 -5 0 -39 -12 -76 -27 l-68 -28 55
-5 55 -5 7 -185 c3 -102 8 -223 11 -270 l4 -85 -34 70 -33 70 5 -61 c3 -34 14
-153 25 -265 22 -223 25 -350 11 -365 -6 -5 -44 -67 -85 -138 l-76 -130 0 90
c0 78 -43 367 -80 534 -6 25 -60 317 -120 649 -100 547 -132 706 -115 566 3
-28 24 -364 46 -748 l40 -698 -20 -31 -19 -32 -12 45 c-6 24 -16 59 -21 77 -7
20 -10 127 -8 270 l3 237 -155 773 c-84 425 -155 768 -157 762 -2 -6 3 -198
12 -428 9 -229 25 -651 36 -937 11 -286 24 -632 30 -770 5 -137 10 -302 11
-365 1 -111 0 -118 -33 -190 -19 -41 -39 -86 -45 -100 -7 -17 -8 50 -5 219 5
233 4 250 -23 401 l-28 158 27 600 c16 330 26 606 23 614 -3 7 -6 1 -6 -14 -1
-27 -109 -785 -114 -802 -2 -5 -22 99 -46 230 l-44 239 12 220 c7 121 14 245
16 275 7 82 -8 23 -36 -142 -13 -76 -26 -134 -30 -130 -3 4 -16 70 -29 147
-26 159 -40 209 -33 120 2 -33 10 -154 17 -270 l12 -210 -43 -239 c-23 -131
-44 -240 -46 -242 -2 -2 -30 183 -62 411 -33 228 -61 413 -62 411 -2 -2 3
-156 12 -342 9 -187 22 -460 29 -608 l13 -270 -29 -155 c-29 -153 -29 -160
-24 -401 l6 -245 -45 104 c-52 120 -52 118 -35 521 10 231 36 916 65 1710 8
223 17 430 19 460 9 107 -14 3 -165 -760 l-151 -765 4 -225 c4 -198 2 -233
-14 -295 -29 -106 -27 -103 -48 -67 -20 33 -17 118 55 1281 8 135 13 246 12
247 -2 2 -54 -281 -117 -629 -63 -348 -117 -634 -121 -637 -3 -3 -6 -18 -6
-35 0 -16 -17 -120 -37 -230 -28 -148 -36 -220 -34 -278 2 -42 1 -77 -2 -77
-3 0 -18 26 -35 57 -16 32 -53 97 -82 144 -47 78 -53 93 -53 143 0 55 33 433
49 553 4 35 5 61 3 58 -3 -3 -18 -33 -34 -68 l-29 -62 6 210 c3 116 8 236 11
268 l6 57 51 0 c29 0 47 4 42 8 -13 12 -135 56 -139 51 -2 -2 -14 -71 -26
-154 -13 -82 -25 -145 -26 -140 -2 6 -22 138 -44 295 -22 157 -43 290 -45 295
-2 6 -2 -26 1 -70 11 -182 34 -713 34 -796 0 -72 -20 -248 -33 -293 -2 -5 -14
7 -26 28 -13 20 -25 36 -26 34 -2 -2 6 -32 18 -67 21 -64 21 -65 3 -190 -23
-157 -24 -160 -48 -121 -18 31 -19 45 -9 418 19 686 35 515 -143 1482 l-156
845 5 -205 c5 -197 29 -909 60 -1760 l14 -405 -39 -223 c-31 -172 -40 -249
-40 -335 0 -110 -1 -114 -47 -229 -25 -65 -48 -117 -49 -115 -5 4 54 524 76
676 11 74 18 136 16 138 -8 8 -184 -690 -240 -952 l-34 -160 -1 370 c-1 349
-2 379 -27 533 l-26 163 21 63 c26 78 26 90 0 49 -12 -18 -24 -33 -28 -33 -3
0 -37 192 -74 427 -37 234 -69 429 -72 431 -3 3 -38 -8 -77 -24 l-73 -29 56
-3 56 -3 7 -227 c4 -125 9 -247 12 -272 l5 -45 -36 70 -35 70 5 -45 c3 -25 16
-172 31 -328 l25 -282 -46 -75 -47 -75 -30 62 c-17 35 -34 74 -39 87 -19 47
-17 14 6 -104 18 -97 20 -123 10 -137 -11 -17 -13 -16 -23 8 -7 13 -12 46 -12
72 0 26 -10 99 -21 162 -12 63 -81 440 -153 837 -73 397 -134 725 -137 727 -2
3 -3 -12 -1 -32 1 -20 20 -342 42 -715 l39 -677 -41 -65 c-22 -36 -42 -64 -45
-62 -2 2 1 143 6 312 l9 308 -158 791 c-103 510 -159 771 -159 736 0 -30 9
-253 19 -495 l18 -440 -56 -412 c-32 -227 -59 -413 -62 -413 -3 0 -53 262
-112 583 -98 528 -107 572 -103 472 6 -134 74 -1317 78 -1362 1 -17 -1 -29 -5
-27 -4 3 -8 12 -8 20 0 8 -22 82 -50 166 -69 208 -185 481 -166 388 12 -61 76
-736 76 -804 0 -24 -8 -51 -18 -64 -18 -24 -19 -22 -82 222 -35 136 -65 245
-66 243 -2 -2 7 -84 21 -183 13 -98 31 -233 38 -299 13 -114 13 -122 -6 -159
l-19 -39 -19 43 c-15 34 -19 66 -19 159 0 101 -11 175 -80 566 -44 248 -87
492 -96 543 l-16 93 42 50 c23 28 40 52 37 55 -3 3 -32 2 -66 -2 l-61 -7 1
-41 c0 -22 8 -237 18 -476 l17 -435 -43 -68 c-24 -38 -73 -118 -108 -180 l-65
-111 -15 37 c-9 22 -15 67 -15 112 0 70 37 899 60 1329 5 104 8 191 7 193 -2
1 -41 -257 -86 -574 l-82 -576 -19 -453 c-17 -399 -22 -463 -41 -531 -20 -70
-23 -110 -29 -413 -3 -184 -7 -302 -8 -261 -1 41 -5 71 -9 68 -3 -4 -9 -49
-13 -99 l-6 -93 -8 140 c-9 141 2 567 44 1795 11 305 29 818 40 1140 11 322
25 708 30 859 6 151 9 275 8 277 -2 1 -74 -390 -161 -869z m9743 -1589 l23
-597 -43 -101 c-24 -55 -44 -100 -44 -100 -6 0 5 709 13 870 6 113 13 278 17
368 4 89 8 161 10 160 1 -2 12 -272 24 -600z m-2705 197 c9 -192 17 -496 18
-675 l2 -325 -44 100 -43 100 11 340 c7 187 16 437 21 555 6 118 11 235 11
260 3 76 8 8 24 -355z m-5704 -117 c27 -704 27 -675 -20 -781 -21 -48 -40 -89
-42 -92 -2 -2 -3 112 -2 253 2 260 33 1125 41 1118 2 -3 12 -226 23 -498z
m2864 -483 c18 -338 18 -344 -4 -855 -12 -283 -22 -551 -23 -595 l-1 -80 -8
100 c-4 55 -17 327 -29 605 -21 489 -21 515 -6 795 9 160 19 342 22 405 3 63
8 131 12 150 7 38 7 37 37 -525z m-2516 -237 c16 -283 17 -334 5 -385 -9 -40
-14 -133 -15 -298 0 -152 -5 -269 -14 -320 l-14 -80 4 80 c2 44 2 72 -1 63 -8
-26 -91 -26 -97 0 -2 9 -7 -28 -11 -83 -11 -149 -16 -139 -11 20 3 77 10 345
16 595 l11 455 44 190 c24 105 47 197 51 205 4 8 9 -14 11 -50 1 -36 11 -212
21 -392z m5046 245 l45 -192 16 -595 c8 -327 14 -610 11 -628 -2 -18 -5 12 -6
67 -2 142 -3 145 -61 145 -38 0 -50 4 -53 18 -3 9 -3 -17 -1 -58 3 -66 2 -70
-6 -30 -5 25 -12 167 -14 315 -3 149 -11 299 -18 333 -10 52 -9 124 5 390 18
328 27 456 33 437 2 -5 24 -96 49 -202z m3361 -230 c15 -292 16 -350 4 -400
-9 -39 -14 -145 -16 -318 -2 -143 -8 -287 -13 -320 l-10 -60 3 80 c2 44 2 72
-1 62 -4 -16 -13 -18 -54 -15 -27 1 -50 1 -50 -2 -1 -3 -5 -52 -9 -110 -8
-119 -5 172 10 750 l9 365 48 205 c57 247 53 260 79 -237z m-9556 115 c5 -128
12 -318 15 -423 l6 -190 -41 115 c-45 125 -44 106 -25 355 l5 70 -20 -90 c-34
-156 -29 -145 -46 -105 -14 33 -12 48 38 272 29 130 54 235 56 233 2 -2 8
-108 12 -237z m7330 5 c49 -222 51 -235 38 -275 l-15 -43 -23 118 c-12 65 -25
116 -27 113 -4 -4 3 -93 21 -260 2 -16 -17 -85 -41 -155 -23 -69 -43 -115 -43
-101 0 94 31 842 35 838 2 -2 26 -108 55 -235z m1079 -58 c6 -160 13 -351 16
-425 l5 -135 -44 123 -45 122 15 141 c8 78 13 146 11 153 -2 6 -12 -34 -22
-89 -25 -139 -29 -150 -45 -100 -10 36 -7 61 39 266 28 124 51 229 51 234 0 5
2 6 4 4 3 -2 9 -135 15 -294z m-4130 98 l-2 -68 -7 55 c-6 50 -4 80 6 80 2 0
3 -30 3 -67z m-1288 -18 l-9 -60 -1 70 c-1 45 2 66 9 59 6 -6 7 -31 1 -69z
m8406 -7 c-2 -18 -4 -6 -4 27 0 33 2 48 4 33 2 -15 2 -42 0 -60z m-8 -303 c-2
-140 -4 -255 -5 -255 -1 0 -7 21 -12 46 -9 43 5 464 15 464 3 0 3 -115 2 -255z
m-5669 185 c0 -14 -5 -32 -10 -40 -7 -11 -10 1 -10 40 0 39 3 51 10 40 5 -8
10 -26 10 -40z m-4158 -22 c2 -21 3 -38 1 -38 -11 0 -23 58 -17 80 8 27 11 19
16 -42z m2739 -248 c1 -69 -2 -136 -8 -148 -6 -16 -9 54 -10 220 0 188 1 221
7 148 5 -52 9 -151 11 -220z m5669 263 c0 -35 -3 -44 -10 -33 -16 25 -11 80 7
80 2 0 3 -21 3 -47z m-6991 -210 c-1 -130 -4 -217 -9 -203 -4 14 -8 61 -9 106
-1 90 10 324 16 324 1 0 3 -102 2 -227z m-643 46 c-14 -33 -14 -31 -14 61 l0
95 15 -61 c12 -54 12 -66 -1 -95z m2604 59 c-1 -91 -1 -92 -15 -59 -13 28 -13
43 -3 92 7 33 13 59 15 59 2 0 3 -42 3 -92z m5807 -54 c-6 -19 -15 -34 -20
-34 -5 0 -6 7 -3 16 3 9 6 50 7 92 l1 77 13 -58 c9 -43 10 -68 2 -93z m-6113
-61 c-4 -32 -15 -91 -25 -132 -10 -40 -22 -110 -26 -155 l-6 -81 -13 55 c-12
52 -10 63 27 207 21 83 39 154 39 157 0 3 2 6 5 6 3 0 2 -26 -1 -57z m6446
-111 c32 -129 35 -149 26 -195 l-11 -51 -12 98 c-7 54 -19 122 -27 150 -14 52
-31 183 -19 156 4 -8 23 -80 43 -158z m-8406 -5 c34 -133 35 -139 22 -200
l-14 -62 -1 60 c-1 33 -11 103 -22 155 -19 83 -36 222 -24 195 2 -5 20 -72 39
-148z m5525 -532 c-15 -99 -30 -193 -32 -210 -2 -16 -3 8 -1 55 3 71 1 78 -7
46 -5 -21 -13 -75 -18 -120 -5 -49 -9 -65 -10 -40 -1 47 9 134 46 399 l27 190
12 -70 c10 -62 8 -89 -17 -250z m-8389 239 c9 -57 1 -127 -49 -439 l-10 -60 5
75 c3 41 8 83 10 93 3 9 1 17 -4 17 -6 0 -14 -37 -20 -82 -5 -51 -10 -67 -11
-43 -1 58 58 509 66 501 2 -2 8 -30 13 -62z m7700 -228 c11 -81 19 -165 19
-185 -1 -27 -4 -22 -10 24 -13 91 -19 89 -14 -5 3 -66 -3 -39 -29 126 -25 161
-31 223 -25 260 4 27 9 56 9 64 3 23 28 -118 50 -284z m-5444 -311 c-2 -11 -4
16 -5 60 -2 99 -8 125 -31 125 -16 0 -20 -12 -27 -82 -4 -46 -9 -72 -11 -58
-2 20 25 268 60 533 0 7 5 -116 10 -273 4 -157 6 -294 4 -305z m3175 334 c16
-134 28 -255 27 -269 -2 -14 -7 12 -11 57 -5 46 -12 85 -18 88 -5 3 -6 -1 -3
-9 3 -9 1 -16 -5 -16 -6 0 -12 8 -13 18 -1 9 -4 -10 -8 -43 -4 -35 -7 41 -8
184 -1 134 0 242 3 239 3 -3 19 -115 36 -249z m5227 -16 c-1 -169 -4 -229 -8
-173 -3 47 -7 75 -8 62 -1 -14 -7 -22 -14 -19 -9 3 -17 -18 -25 -67 l-12 -71
5 75 c9 133 51 450 59 450 3 0 4 -116 3 -257z m-7481 -75 c-3 -7 -5 -2 -5 12
0 14 2 19 5 13 2 -7 2 -19 0 -25z m-2131 -105 c-5 -71 -11 -162 -16 -203 -7
-64 -7 -58 -4 40 6 157 16 290 22 290 3 0 2 -57 -2 -127z m5571 -162 l0 -96
-7 75 c-5 41 -11 129 -14 195 l-5 120 13 -99 c7 -54 13 -142 13 -195z m2838
112 c-4 -46 -11 -83 -17 -83 -10 0 -9 35 9 195 8 70 8 70 11 20 2 -27 1 -87
-3 -132z m-4988 130 c-3 -10 -5 -4 -5 12 0 17 2 24 5 18 2 -7 2 -21 0 -30z
m-993 -180 c-7 -25 -8 -22 -15 27 -4 30 -7 84 -7 120 l1 65 14 -92 c9 -55 12
-104 7 -120z m715 125 c0 -61 -3 -77 -9 -60 -9 20 -3 142 6 142 2 0 4 -37 3
-82z m7683 -72 c-8 -25 -10 -13 -10 64 l1 95 9 -64 c7 -42 7 -74 0 -95z
m-3755 -43 c-2 -16 -4 -5 -4 22 0 28 2 40 4 28 2 -13 2 -35 0 -50z m-3938 -23
c0 -20 -1 -22 -9 -10 -5 8 -9 33 -9 55 1 39 2 39 9 10 4 -16 8 -41 9 -55z
m1208 8 c-2 -13 -4 -5 -4 17 -1 22 1 32 4 23 2 -10 2 -28 0 -40z m6498 -8 c-4
-28 -9 -49 -12 -46 -3 2 -2 28 2 56 4 28 9 49 12 46 3 -2 2 -28 -2 -56z
m-4158 -12 c-2 -13 -4 -3 -4 22 0 25 2 35 4 23 2 -13 2 -33 0 -45z m-1380 5
c-3 -10 -5 -4 -5 12 0 17 2 24 5 18 2 -7 2 -21 0 -30z m3360 -10 c-3 -10 -5
-2 -5 17 0 19 2 27 5 18 2 -10 2 -26 0 -35z m-9790 -15 c-2 -13 -4 -5 -4 17
-1 22 1 32 4 23 2 -10 2 -28 0 -40z m10150 -25 c-2 -16 -4 -3 -4 27 0 30 2 43
4 28 2 -16 2 -40 0 -55z m520 15 c-2 -13 -4 -3 -4 22 0 25 2 35 4 23 2 -13 2
-33 0 -45z m-10150 -25 c-2 -16 -4 -3 -4 27 0 30 2 43 4 28 2 -16 2 -40 0 -55z
m860 40 c-3 -10 -5 -4 -5 12 0 17 2 24 5 18 2 -7 2 -21 0 -30z m6410 0 c-3
-10 -5 -4 -5 12 0 17 2 24 5 18 2 -7 2 -21 0 -30z m640 0 c-3 -10 -5 -4 -5 12
0 17 2 24 5 18 2 -7 2 -21 0 -30z m-8600 -95 c-2 -24 -4 -5 -4 42 0 47 2 66 4
43 2 -24 2 -62 0 -85z m190 80 c-3 -7 -5 -2 -5 12 0 14 2 19 5 13 2 -7 2 -19
0 -25z m5530 -5 c-3 -10 -5 -4 -5 12 0 17 2 24 5 18 2 -7 2 -21 0 -30z m1740
0 c-3 -10 -5 -4 -5 12 0 17 2 24 5 18 2 -7 2 -21 0 -30z m-3720 -5 c-3 -7 -5
-2 -5 12 0 14 2 19 5 13 2 -7 2 -19 0 -25z m-3770 -15 c-3 -10 -5 -4 -5 12 0
17 2 24 5 18 2 -7 2 -21 0 -30z m6270 5 c-3 -7 -5 -2 -5 12 0 14 2 19 5 13 2
-7 2 -19 0 -25z m-3810 -10 c-3 -7 -5 -2 -5 12 0 14 2 19 5 13 2 -7 2 -19 0
-25z m6670 -5 c-3 -10 -5 -4 -5 12 0 17 2 24 5 18 2 -7 2 -21 0 -30z m-4690 5
c-3 -8 -6 -5 -6 6 -1 11 2 17 5 13 3 -3 4 -12 1 -19z m-2490 -35 c-3 -10 -5
-4 -5 12 0 17 2 24 5 18 2 -7 2 -21 0 -30z m6230 0 c-3 -10 -5 -4 -5 12 0 17
2 24 5 18 2 -7 2 -21 0 -30z m30 5 c-3 -7 -5 -2 -5 12 0 14 2 19 5 13 2 -7 2
-19 0 -25z m2740 -30 c-2 -13 -4 -5 -4 17 -1 22 1 32 4 23 2 -10 2 -28 0 -40z
m-1830 -10 c-3 -8 -6 -5 -6 6 -1 11 2 17 5 13 3 -3 4 -12 1 -19z m3060 -120
c-3 -7 -5 -2 -5 12 0 14 2 19 5 13 2 -7 2 -19 0 -25z"/>
<path d="M201 1944 c0 -11 3 -14 6 -6 3 7 2 16 -1 19 -3 4 -6 -2 -5 -13z"/>
</g>
</svg>
