<svg width="83" height="83" viewBox="0 0 83 83" fill="none" xmlns="http://www.w3.org/2000/svg">
<path d="M83 13.8333H0V69.1672H83V13.8333Z" fill="#F0F0F0"/>
<path d="M46.6875 13.8328H36.3125V36.3119H0V46.6869H36.3125V69.1659H46.6875V46.6869H83V36.3119H46.6875V13.8328Z" fill="#D80027"/>
<path d="M63.8362 51.1225L83 61.7692V51.1225H63.8362Z" fill="#0052B4"/>
<path d="M50.5217 51.1225L83 69.1659V64.0637L59.706 51.1225H50.5217Z" fill="#0052B4"/>
<path d="M74.3489 69.1659L50.5217 55.9274V69.1659H74.3489Z" fill="#0052B4"/>
<path d="M50.5217 51.1225L83 69.1659V64.0637L59.706 51.1225H50.5217Z" fill="#F0F0F0"/>
<path d="M50.5217 51.1225L83 69.1659V64.0637L59.706 51.1225H50.5217Z" fill="#D80027"/>
<path d="M14.6451 51.1222L0 59.2584V51.1222H14.6451Z" fill="#0052B4"/>
<path d="M32.4783 53.4167V69.1657H4.13232L32.4783 53.4167Z" fill="#0052B4"/>
<path d="M23.294 51.1225L0 64.0637V69.1659L32.4783 51.1225H23.294Z" fill="#D80027"/>
<path d="M19.1638 31.8762L0 21.2295V31.8762H19.1638Z" fill="#0052B4"/>
<path d="M32.4783 31.8762L0 13.8328V18.935L23.294 31.8762H32.4783Z" fill="#0052B4"/>
<path d="M8.65112 13.8328L32.4783 27.0713V13.8328H8.65112Z" fill="#0052B4"/>
<path d="M32.4783 31.8762L0 13.8328V18.935L23.294 31.8762H32.4783Z" fill="#F0F0F0"/>
<path d="M32.4783 31.8762L0 13.8328V18.935L23.294 31.8762H32.4783Z" fill="#D80027"/>
<path d="M68.3549 31.8765L83 23.7403V31.8765H68.3549Z" fill="#0052B4"/>
<path d="M50.5217 29.582V13.833H78.8677L50.5217 29.582Z" fill="#0052B4"/>
<path d="M59.706 31.8762L83 18.935V13.8328L50.5217 31.8762H59.706Z" fill="#D80027"/>
</svg>
